#!OML:ASF I:\Actors\actors\Patient Classification 1\Patient 1\Session 1\Subject1.ASF
:FULLY-SPECIFIED
:DEGREES
396
root -0.492964 17.735 8.78599 8.77355 2.13302 -7.23271
lowerback 8.8281 0.459017 5.01151
upperback -12.9193 1.64767 0.362206
thorax -19.9155 0.0497268 -2.79429
lowerneck 2.08488 -3.10588 -1.53195
upperneck -12.7583 -2.32277 17.1552
head -3.86231 -1.90584 5.6566
rclavicle 3.18055e-015 -7.15625e-015
rhumerus 3.83269 -47.0407 19.1855
rradius 128.323
rwrist -53.5743
rhand 10.3128 -46.4344
rfingers 7.12502
rthumb 35.4229 -792.891
lclavicle 3.18055e-015 -7.15625e-015
lhumerus 23.0913 47.8671 -6.97031
lradius 123.573
lwrist 93.7216
lhand -27.2797 -4.26184
lfingers 7.12502
lthumb -0.690267 25.7168
rfemur 0.249348 24.0921 25.5542
rtibia 1.29365
rfoot -14.1758 -28.9767
rtoes 4.41203
lfemur 8.7846 -46.6469 -16.9437
ltibia -4.38131
lfoot -22.1229 53.3599
ltoes 10.1578
397
root -0.499827 17.7292 8.80569 8.55724 2.07853 -7.26174
lowerback 8.7411 0.441671 4.93651
upperback -12.9789 1.61244 0.401736
thorax -19.9407 0.0480949 -2.69535
lowerneck 2.14403 -3.18702 -1.32623
upperneck -13.2576 -2.38166 16.8551
head -4.02666 -1.95643 5.54382
rclavicle -2.5842e-015 1.11319e-014
rhumerus 3.15455 -47.3784 18.6591
rradius 130.056
rwrist -52.861
rhand 9.14981 -46.4151
rfingers 7.12502
rthumb 34.3195 -793.127
lclavicle -2.5842e-015 1.11319e-014
lhumerus 22.5799 47.8216 -6.10393
lradius 124.837
lwrist 94.2147
lhand -27.7625 -3.99778
lfingers 7.12502
lthumb -1.15656 25.9788
rfemur 0.474607 23.8001 25.7002
rtibia 1.435
rfoot -14.2146 -28.6761
rtoes 4.26087
lfemur 9.19161 -46.368 -17.1692
ltibia -4.42068
lfoot -21.9527 53.2465
ltoes 9.70546
398
root -0.506108 17.7229 8.8256 8.37108 1.98849 -7.32352
lowerback 8.60728 0.477435 4.87256
upperback -13.0485 1.64912 0.430412
thorax -19.9396 0.0767777 -2.63248
lowerneck 1.5493 -3.02329 -1.56259
upperneck -12.3122 -2.28745 17.1924
head -3.63748 -1.84233 5.64775
rclavicle 4.96962e-015 -4.77083e-015
rhumerus 2.43039 -47.2244 18.4181
rradius 131.4
rwrist -52.0668
rhand 8.30414 -46.0586
rfingers 7.12502
rthumb 33.5162 -792.948
lclavicle 4.96962e-015 -4.77083e-015
lhumerus 22.4203 47.4567 -5.00431
lradius 126.148
lwrist 94.5868
lhand -27.3526 -4.77775
lfingers 7.12502
lthumb -0.760679 25.2006
rfemur 0.676267 23.5695 25.8689
rtibia 1.55781
rfoot -14.1907 -28.4026
rtoes 3.95808
lfemur 9.62034 -46.198 -17.3902
ltibia -4.45321
lfoot -22.1223 53.2065
ltoes 9.68488
399
root -0.510922 17.7162 8.84461 8.24819 1.89804 -7.48541
lowerback 8.35107 0.52121 4.93898
upperback -13.1348 1.71226 0.451662
thorax -19.872 0.0993889 -2.65468
lowerneck 1.55768 -3.06212 -1.69105
upperneck -12.4918 -2.31763 17.2409
head -3.68548 -1.86228 5.69131
rclavicle -4.17448e-015 -7.15625e-015
rhumerus 1.85123 -46.6291 18.2052
rradius 132.447
rwrist -51.0524
rhand 6.94969 -46.1203
rfingers 7.12502
rthumb 32.2278 -793.28
lclavicle -4.17448e-015 -7.15625e-015
lhumerus 22.5144 46.7678 -3.92729
lradius 127.462
lwrist 94.5004
lhand -27.0781 -6.07983
lfingers 7.12502
lthumb -0.495533 23.8993
rfemur 0.819576 23.4505 26.1352
rtibia 1.66892
rfoot -14.1624 -28.2098
rtoes 3.74318
lfemur 10.0399 -46.2607 -17.5227
ltibia -4.4681
lfoot -22.4495 53.353
ltoes 9.87989
400
root -0.515733 17.7101 8.86189 8.19759 1.81434 -7.66085
lowerback 7.97642 0.547663 5.05265
upperback -13.192 1.7471 0.457754
thorax -19.6833 0.105011 -2.71059
lowerneck 1.60604 -3.05376 -1.75455
upperneck -12.7663 -2.25614 17.3669
head -3.77817 -1.85014 5.75041
rclavicle -3.97569e-015 7.95139e-015
rhumerus 1.53479 -45.8957 17.7003
rradius 133.308
rwrist -49.7287
rhand 4.29285 -46.8399
rfingers 7.12502
rthumb 29.6953 -794.482
lclavicle -3.97569e-015 7.95139e-015
lhumerus 22.5637 45.972 -3.12733
lradius 128.746
lwrist 93.8105
lhand -28.0355 -7.0645
lfingers 7.12502
lthumb -1.42016 22.9105
rfemur 0.876108 23.3848 26.3847
rtibia 1.78211
rfoot -14.2112 -28.056
rtoes 3.5012
lfemur 10.3014 -46.3385 -17.5297
ltibia -4.43231
lfoot -22.8023 53.48
ltoes 9.96901
401
root -0.520852 17.7048 8.87633 8.15777 1.73393 -7.74545
lowerback 7.57542 0.520941 5.0727
upperback -13.1886 1.68587 0.465712
thorax -19.403 0.0848107 -2.68806
lowerneck 1.56491 -2.93969 -1.86837
upperneck -12.9553 -2.05674 17.5931
head -3.84115 -1.7651 5.84284
rclavicle 3.57812e-015 8.74653e-015
rhumerus 1.62929 -45.3898 16.3712
rradius 134.164
rwrist -48.295
rhand 1.30063 -47.9393
rfingers 7.12502
rthumb 26.8355 -796.055
lclavicle 3.57812e-015 8.74653e-015
lhumerus 22.3205 45.3303 -2.59717
lradius 129.93
lwrist 93.1164
lhand -29.8103 -7.81168
lfingers 7.12502
lthumb -3.1343 22.145
rfemur 0.898972 23.1921 26.4946
rtibia 1.88015
rfoot -14.2925 -27.7974
rtoes 3.18692
lfemur 10.4466 -46.2857 -17.5376
ltibia -4.3872
lfoot -23.0582 53.4943
ltoes 9.90313
402
root -0.525222 17.6998 8.88613 8.0784 1.67191 -7.72095
lowerback 7.25304 0.429803 4.98574
upperback -13.1447 1.51839 0.462252
thorax -19.1336 0.0300403 -2.59711
lowerneck 1.76785 -2.94415 -1.93467
upperneck -13.7742 -1.95238 17.5336
head -4.13208 -1.75785 5.86285
rclavicle -8.74653e-015 -7.95139e-016
rhumerus 1.96921 -45.5131 14.2476
rradius 135.251
rwrist -47.9153
rhand -0.972339 -49.1476
rfingers 7.12502
rthumb 24.6587 -797.579
lclavicle -8.74653e-015 -7.95139e-016
lhumerus 21.817 44.9211 -2.09579
lradius 131.029
lwrist 93.0521
lhand -31.273 -8.6391
lfingers 7.12502
lthumb -4.54671 21.2921
rfemur 0.933556 22.8315 26.4592
rtibia 1.9677
rfoot -14.2845 -27.4098
rtoes 3.04508
lfemur 10.5159 -46.0004 -17.5978
ltibia -4.33313
lfoot -22.9589 53.2804
ltoes 9.71134
403
root -0.530358 17.6941 8.88822 7.9371 1.61724 -7.71282
lowerback 7.11104 0.311201 4.91614
upperback -13.0838 1.32701 0.453671
thorax -18.9695 -0.0426535 -2.52125
lowerneck 1.5581 -2.90192 -2.06748
upperneck -13.622 -1.90389 17.7899
head -4.0472 -1.72404 5.95809
rclavicle 5.36719e-015 -2.38542e-014
rhumerus 2.23402 -46.28 11.6858
rradius 136.631
rwrist -49.1389
rhand -2.72812 -50.2296
rfingers 7.12502
rthumb 22.9749 -798.881
lclavicle 5.36719e-015 -2.38542e-014
lhumerus 21.2199 44.7071 -1.46072
lradius 132.05
lwrist 93.4979
lhand -32.2624 -8.97292
lfingers 7.12502
lthumb -5.50207 20.9357
rfemur 0.952187 22.4419 26.4516
rtibia 2.15262
rfoot -14.2756 -26.9874
rtoes 3.06007
lfemur 10.456 -45.3502 -17.5127
ltibia -4.21887
lfoot -22.49 52.7238
ltoes 9.23842
404
root -0.538096 17.6873 8.88219 7.72897 1.50055 -7.75521
lowerback 7.17758 0.173053 4.82632
upperback -13.072 1.1353 0.537003
thorax -19.0183 -0.10983 -2.33101
lowerneck 1.57566 -2.86002 -2.58725
upperneck -13.3742 -1.86974 18.2256
head -3.96108 -1.69308 6.18084
rclavicle -5.36719e-015 3.18055e-015
rhumerus 2.53573 -47.176 8.6399
rradius 138.262
rwrist -50.9914
rhand -4.27809 -50.5883
rfingers 7.12502
rthumb 21.4869 -799.417
lclavicle -5.36719e-015 3.18055e-015
lhumerus 20.2043 44.3877 -0.767255
lradius 133.186
lwrist 93.9528
lhand -33.0773 -8.91759
lfingers 7.12502
lthumb -6.28883 20.9691
rfemur 0.944882 22.0612 26.5097
rtibia 2.46759
rfoot -14.3486 -26.5159
rtoes 3.05388
lfemur 10.4144 -44.5496 -17.349
ltibia -4.10091
lfoot -22.1313 52.0766
ltoes 8.82755
